<?xml version="1.0" encoding="utf-8"?>
<!-- Generator: Adobe Illustrator 28.0.0, SVG Export Plug-In . SVG Version: 6.00 Build 0)  -->
<svg version="1.1" id="Layer_1" xmlns="http://www.w3.org/2000/svg" xmlns:xlink="http://www.w3.org/1999/xlink" x="0px" y="0px"
	 viewBox="0 0 600 600" style="enable-background:new 0 0 600 600;" xml:space="preserve">
<style type="text/css">
	.st0{fill:url(#SVGID_1_);}
	.st1{fill:url(#SVGID_00000049193178024881344840000001022877807380791970_);}
	.st2{fill:#1599CE;}
	.st3{fill:url(#SVGID_00000114758348769117856130000007961638708456757889_);}
	.st4{fill:url(#SVGID_00000047740194581179315090000016436063401175692460_);}
	.st5{fill:url(#SVGID_00000075122045167149356000000012430073353531907519_);}
	.st6{fill:url(#SVGID_00000032638100013488180710000005858890324148564363_);}
	.st7{opacity:0.8;}
	.st8{fill:#FFFFFF;}
	.st9{opacity:0.8;fill:#FFFFFF;}
	.st10{fill:#15A0FD;}
	.st11{opacity:0.8;fill:#15A0FD;}
	.st12{fill:#74E9CC;}
	.st13{opacity:0.8;fill:#74E9CC;}
</style>
<g>
	<g>
		<g>
			
				<linearGradient id="SVGID_1_" gradientUnits="userSpaceOnUse" x1="71.2025" y1="927.6535" x2="-272.6248" y2="927.6535" gradientTransform="matrix(0.9785 0.2063 -0.2063 0.9785 636.6139 -560.2037)">
				<stop  offset="0" style="stop-color:#15A0FD"/>
				<stop  offset="1" style="stop-color:#74E9CC"/>
			</linearGradient>
			<path class="st0" d="M559.3,263.53l-0.43,0.14l-31.56,10.45l-6.5,2.16c-0.41,0.13-0.85,0.3-1.3,0.45
				c-1.45,0.55-3.07,1.16-4.83,1.87c-0.41,0.19-0.85,0.36-1.29,0.55c-15.8,6.56-31.01,22.21-47.86,44.96
				c-6.82,9.19-19.05,26.21-36.49,44.44c-9.91,10.36-21.52,21.13-34.78,31.11c-0.88,0.67-1.78,1.33-2.68,1.98
				c-0.85,0.63-1.72,1.23-2.58,1.85c-1.2,0.84-2.42,1.69-3.64,2.53c-1.29,0.88-2.59,1.75-3.9,2.61c-0.45,0.3-0.9,0.6-1.35,0.9
				c-2.72,1.75-5.52,3.48-8.37,5.14c-27.76,16.21-71.66,25.2-110.36,23.78c-0.92-0.03-1.83-0.07-2.75-0.14
				c-30.73-1.58-64.79-11.17-102.08-32.51c0,0,102.49,7.21,161.35-32.52c11.94-8.06,22.07-18.04,29.2-30.41
				c0.02-0.04,0.05-0.07,0.08-0.15c-0.32,0.1-5.19,1.76-13.18,2.98c-23.95,3.59-75.91,3.12-117.48-55.27
				C133.97,174.41,95.76,170.39,56.55,167.97c0,0,83.78-42.36,172.74,13.82c7.16,4.51,14.34,9.67,21.53,15.53
				c59.4,48.52,78.86,73.92,109.39,75.06c11.54,0.43,23.09-2.58,34.18-6.32c10.12-3.42,19.73-7.35,29.24-12.68
				c13.53-7.58,28.24-14.18,43.4-14.89c7.51-0.36,14.98,0.86,21.85,3.92c3.62,1.61,6.84,3.78,10.09,6.08
				c0.81,0.57,4.02,3.47,4.8,3.2C546.07,236.59,559.3,263.53,559.3,263.53z"/>
		</g>
		
			<linearGradient id="SVGID_00000126309082365215538820000017596965656378902698_" gradientUnits="userSpaceOnUse" x1="536.3276" y1="370.6215" x2="162.8209" y2="291.8866">
			<stop  offset="0" style="stop-color:#74E9CC"/>
			<stop  offset="1" style="stop-color:#15A0FD"/>
		</linearGradient>
		<path style="fill:url(#SVGID_00000126309082365215538820000017596965656378902698_);" d="M558.87,263.66l-31.55,10.47l-6.5,2.16
			c-0.4,0.11-0.86,0.3-1.3,0.43c-1.46,0.54-3.08,1.16-4.83,1.86c-0.4,0.22-0.86,0.38-1.3,0.57c-15.79,6.56-31.01,22.21-47.85,44.96
			c-0.22,0.27-0.43,0.59-0.65,0.89c-0.22,0.3-0.43,0.62-0.67,0.94c-7.02,9.55-18.41,26.02-33.36,44.42
			c-10.01,11.15-20.86,21.86-32.68,31.22c-0.22,0.19-0.46,0.38-0.7,0.54c-7.37,5.56-15.09,10.71-23.07,15.49
			c-0.08,0.05-0.16,0.08-0.24,0.13c-74.16,44.23-168.48,55.43-170.24,55.81c21.05-11.9,39.16-23.78,54.7-35.27h0.03
			c1.05-0.81,2.11-1.57,3.13-2.35c1.03-0.78,2.05-1.56,3.08-2.32c4.05-3.1,7.93-6.18,11.63-9.2c1.86-1.51,3.64-3,5.4-4.51
			c0.89-0.73,1.75-1.48,2.62-2.24c0.81-0.7,1.65-1.4,2.46-2.11c3.37-2.97,6.56-5.88,9.61-8.74c0.76-0.7,1.48-1.4,2.21-2.11
			c2.21-2.08,4.32-4.16,6.32-6.18c0.67-0.67,1.35-1.35,2-2.02c0.67-0.67,1.32-1.35,1.92-2c0.65-0.65,1.27-1.3,1.89-1.97
			c1.24-1.3,2.43-2.59,3.56-3.83c0.59-0.65,1.16-1.27,1.7-1.89c8.96-9.96,15.57-18.7,20.32-25.72c0.59-0.86,1.13-1.67,1.65-2.48
			c1.92-2.91,3.48-5.48,4.72-7.64c0.19-0.3,0.35-0.59,0.51-0.89c0.84-1.46,1.51-2.73,2.05-3.78c0.19-0.35,0.38-0.67,0.51-1
			c0.22-0.41,0.38-0.76,0.54-1.08c0.19-0.4,0.35-0.76,0.46-1c0-0.03,0.03-0.08,0.05-0.11c0.05-0.11,0.08-0.19,0.11-0.24v-0.03
			c0.03-0.05,0.05-0.08,0.08-0.16c-98.1,5.86-107.01-75.43-112.48-132.29c-1.05-10.55-2.97-20.1-5.42-28.63
			c-10.71-37.35-31.58-55.35-31.58-55.35s80.21,10.5,116.45,76.48c14.9,27.1,28.58,52.22,46.04,69.47
			c17.97,17.73,39.91,27.2,71.33,22.05C477.75,286.82,527.35,248.28,558.87,263.66z"/>
		<path class="st2" d="M558.87,263.66l-31.55,10.47l-6.5,2.16c-0.4,0.11-0.86,0.3-1.3,0.43c-1.46,0.54-3.08,1.16-4.83,1.86
			c-0.4,0.22-0.86,0.38-1.3,0.57c-15.79,6.56-31.01,22.21-47.85,44.96c-0.22,0.27-0.43,0.59-0.65,0.89
			c-0.22,0.3-0.43,0.62-0.67,0.94c-7.02,9.55-18.41,26.02-33.36,44.42c-10.01,11.15-20.86,21.86-32.68,31.22
			c-0.22,0.19-0.46,0.38-0.7,0.54c-7.31,5.78-15,10.98-23.07,15.49c-0.08,0.05-0.16,0.08-0.24,0.13
			c-20.83,11.55-46.39,14.98-69.95,18.3c-0.19,0.03-0.38,0.05-0.57,0.08c-0.97,0.14-1.94,0.27-2.91,0.38
			c-0.92,0.13-1.86,0.24-2.81,0.35c-2.54,0.3-5.07,0.57-7.64,0.78c-1.48,0.13-2.97,0.24-4.45,0.32c-1.11,0.11-2.21,0.19-3.32,0.22
			c-0.08,0.03-0.16,0.03-0.24,0.03c-0.81,0.03-1.62,0.08-2.43,0.11c-1.08,0.05-2.16,0.11-3.24,0.13c-0.38,0-0.73,0.03-1.11,0.03
			c-0.86,0.03-1.73,0.05-2.59,0.05c-3.86,0.05-7.69,0.03-11.52-0.11c-0.92-0.03-1.78-0.08-2.73-0.14c1.05-0.81,2.11-1.57,3.13-2.35
			c1.03-0.78,2.05-1.56,3.08-2.32c4.05-3.1,7.93-6.18,11.63-9.2c1.83-1.51,3.64-3.02,5.4-4.51c0.89-0.73,1.75-1.48,2.62-2.24
			c0.81-0.7,1.65-1.4,2.46-2.11c3.37-2.97,6.56-5.88,9.61-8.74c0.76-0.7,1.48-1.4,2.21-2.11c2.21-2.08,4.32-4.16,6.32-6.18
			c0.67-0.67,1.35-1.35,2-2.02s1.3-1.32,1.92-2c0.65-0.65,1.27-1.3,1.89-1.97c1.24-1.3,2.43-2.59,3.56-3.83
			c0.59-0.65,1.16-1.27,1.7-1.89c8.96-9.96,15.57-18.7,20.32-25.72c0.59-0.86,1.13-1.67,1.65-2.48c1.92-2.91,3.48-5.48,4.72-7.64
			c0.19-0.3,0.35-0.59,0.51-0.89c0.84-1.46,1.51-2.73,2.05-3.78c0.19-0.35,0.38-0.67,0.51-1c0.22-0.41,0.38-0.76,0.54-1.08
			c0.19-0.4,0.35-0.76,0.46-1c0-0.03,0.03-0.08,0.05-0.11c0-0.05,0.03-0.08,0.03-0.11c0.03-0.05,0.05-0.11,0.08-0.14v-0.03
			c0.03-0.05,0.05-0.08,0.08-0.16c-98.1,5.86-107.01-75.43-112.48-132.29c-1.05-10.55-2.97-20.1-5.42-28.63
			c7.18,4.51,14.36,9.66,21.54,15.52c59.4,48.52,78.86,73.92,109.38,75.08c17.97,17.73,39.91,27.2,71.33,22.05
			C477.75,286.82,527.35,248.28,558.87,263.66z"/>
	</g>
	<g>
		
			<linearGradient id="SVGID_00000168106783659027370710000014015853706649795218_" gradientUnits="userSpaceOnUse" x1="299.2033" y1="426.4332" x2="240.1492" y2="367.3792">
			<stop  offset="0" style="stop-color:#15A0FD"/>
			<stop  offset="1" style="stop-color:#74E9CC"/>
		</linearGradient>
		<path style="fill:url(#SVGID_00000168106783659027370710000014015853706649795218_);" d="M152.05,331.44
			c40.27-16.74,77.8,14.11,82.36,17.56c0.27,0.19,0.39,0.29,0.39,0.29c25.35,20.96,43.49,17.45,55.83,16.42
			c0,0-28.85,19.86-64.92,4.28c-2.89-1.25-5.83-2.71-8.83-4.47C195.01,352.75,166.22,334.52,152.05,331.44z"/>
	</g>
</g>
</svg>
