<?xml version="1.0" encoding="UTF-8" standalone="no"?>
<!-- Generator: Adobe Illustrator 28.0.0, SVG Export Plug-In . SVG Version: 6.00 Build 0)  -->

<svg
   version="1.1"
   id="Layer_1"
   x="0px"
   y="0px"
   viewBox="0 0 502.75 347.14001"
   xml:space="preserve"
   sodipodi:docname="fireguard-icon.svg"
   width="502.75"
   height="347.14001"
   inkscape:version="1.4 (e7c3feb100, 2024-10-09)"
   xmlns:inkscape="http://www.inkscape.org/namespaces/inkscape"
   xmlns:sodipodi="http://sodipodi.sourceforge.net/DTD/sodipodi-0.dtd"
   xmlns="http://www.w3.org/2000/svg"
   xmlns:svg="http://www.w3.org/2000/svg"><defs
   id="defs7" /><sodipodi:namedview
   id="namedview7"
   pagecolor="#ffffff"
   bordercolor="#000000"
   borderopacity="0.25"
   inkscape:showpageshadow="2"
   inkscape:pageopacity="0.0"
   inkscape:pagecheckerboard="0"
   inkscape:deskcolor="#d1d1d1"
   inkscape:zoom="1.4216667"
   inkscape:cx="243.37632"
   inkscape:cy="173.38804"
   inkscape:window-width="1920"
   inkscape:window-height="1056"
   inkscape:window-x="1920"
   inkscape:window-y="0"
   inkscape:window-maximized="1"
   inkscape:current-layer="Layer_1" />
<style
   type="text/css"
   id="style1">
	.st0{fill:url(#SVGID_1_);}
	.st1{fill:url(#SVGID_00000049193178024881344840000001022877807380791970_);}
	.st2{fill:#1599CE;}
	.st3{fill:url(#SVGID_00000114758348769117856130000007961638708456757889_);}
	.st4{fill:url(#SVGID_00000047740194581179315090000016436063401175692460_);}
	.st5{fill:url(#SVGID_00000075122045167149356000000012430073353531907519_);}
	.st6{fill:url(#SVGID_00000032638100013488180710000005858890324148564363_);}
	.st7{opacity:0.8;}
	.st8{fill:#FFFFFF;}
	.st9{opacity:0.8;fill:#FFFFFF;}
	.st10{fill:#15A0FD;}
	.st11{opacity:0.8;fill:#15A0FD;}
	.st12{fill:#74E9CC;}
	.st13{opacity:0.8;fill:#74E9CC;}
</style>
<g
   id="g7"
   transform="translate(-56.55,-126.41)">
	<g
   id="g5">
		<g
   id="g2">
			
				<linearGradient
   id="SVGID_1_"
   gradientUnits="userSpaceOnUse"
   x1="71.202499"
   y1="927.6535"
   x2="-272.62479"
   y2="927.6535"
   gradientTransform="matrix(0.9785,0.2063,-0.2063,0.9785,636.6139,-560.2037)">
				<stop
   offset="0"
   style="stop-color:#15A0FD"
   id="stop1" />
				<stop
   offset="1"
   style="stop-color:#74E9CC"
   id="stop2" />
			</linearGradient>
			<path
   class="st0"
   d="m 559.3,263.53 -0.43,0.14 -31.56,10.45 -6.5,2.16 c -0.41,0.13 -0.85,0.3 -1.3,0.45 -1.45,0.55 -3.07,1.16 -4.83,1.87 -0.41,0.19 -0.85,0.36 -1.29,0.55 -15.8,6.56 -31.01,22.21 -47.86,44.96 -6.82,9.19 -19.05,26.21 -36.49,44.44 -9.91,10.36 -21.52,21.13 -34.78,31.11 -0.88,0.67 -1.78,1.33 -2.68,1.98 -0.85,0.63 -1.72,1.23 -2.58,1.85 -1.2,0.84 -2.42,1.69 -3.64,2.53 -1.29,0.88 -2.59,1.75 -3.9,2.61 -0.45,0.3 -0.9,0.6 -1.35,0.9 -2.72,1.75 -5.52,3.48 -8.37,5.14 -27.76,16.21 -71.66,25.2 -110.36,23.78 -0.92,-0.03 -1.83,-0.07 -2.75,-0.14 -30.73,-1.58 -64.79,-11.17 -102.08,-32.51 0,0 102.49,7.21 161.35,-32.52 11.94,-8.06 22.07,-18.04 29.2,-30.41 0.02,-0.04 0.05,-0.07 0.08,-0.15 -0.32,0.1 -5.19,1.76 -13.18,2.98 -23.95,3.59 -75.91,3.12 -117.48,-55.27 C 133.97,174.41 95.76,170.39 56.55,167.97 c 0,0 83.78,-42.36 172.74,13.82 7.16,4.51 14.34,9.67 21.53,15.53 59.4,48.52 78.86,73.92 109.39,75.06 11.54,0.43 23.09,-2.58 34.18,-6.32 10.12,-3.42 19.73,-7.35 29.24,-12.68 13.53,-7.58 28.24,-14.18 43.4,-14.89 7.51,-0.36 14.98,0.86 21.85,3.92 3.62,1.61 6.84,3.78 10.09,6.08 0.81,0.57 4.02,3.47 4.8,3.2 42.3,-15.1 55.53,11.84 55.53,11.84 z"
   id="path2"
   style="fill:url(#SVGID_1_)" />
		</g>
		
			<linearGradient
   id="SVGID_00000126309082365215538820000017596965656378902698_"
   gradientUnits="userSpaceOnUse"
   x1="536.32758"
   y1="370.62149"
   x2="162.82091"
   y2="291.8866">
			<stop
   offset="0"
   style="stop-color:#74E9CC"
   id="stop3" />
			<stop
   offset="1"
   style="stop-color:#15A0FD"
   id="stop4" />
		</linearGradient>
		<path
   style="fill:url(#SVGID_00000126309082365215538820000017596965656378902698_)"
   d="m 558.87,263.66 -31.55,10.47 -6.5,2.16 c -0.4,0.11 -0.86,0.3 -1.3,0.43 -1.46,0.54 -3.08,1.16 -4.83,1.86 -0.4,0.22 -0.86,0.38 -1.3,0.57 -15.79,6.56 -31.01,22.21 -47.85,44.96 -0.22,0.27 -0.43,0.59 -0.65,0.89 -0.22,0.3 -0.43,0.62 -0.67,0.94 -7.02,9.55 -18.41,26.02 -33.36,44.42 -10.01,11.15 -20.86,21.86 -32.68,31.22 -0.22,0.19 -0.46,0.38 -0.7,0.54 -7.37,5.56 -15.09,10.71 -23.07,15.49 -0.08,0.05 -0.16,0.08 -0.24,0.13 -74.16,44.23 -168.48,55.43 -170.24,55.81 21.05,-11.9 39.16,-23.78 54.7,-35.27 h 0.03 c 1.05,-0.81 2.11,-1.57 3.13,-2.35 1.03,-0.78 2.05,-1.56 3.08,-2.32 4.05,-3.1 7.93,-6.18 11.63,-9.2 1.86,-1.51 3.64,-3 5.4,-4.51 0.89,-0.73 1.75,-1.48 2.62,-2.24 0.81,-0.7 1.65,-1.4 2.46,-2.11 3.37,-2.97 6.56,-5.88 9.61,-8.74 0.76,-0.7 1.48,-1.4 2.21,-2.11 2.21,-2.08 4.32,-4.16 6.32,-6.18 0.67,-0.67 1.35,-1.35 2,-2.02 0.67,-0.67 1.32,-1.35 1.92,-2 0.65,-0.65 1.27,-1.3 1.89,-1.97 1.24,-1.3 2.43,-2.59 3.56,-3.83 0.59,-0.65 1.16,-1.27 1.7,-1.89 8.96,-9.96 15.57,-18.7 20.32,-25.72 0.59,-0.86 1.13,-1.67 1.65,-2.48 1.92,-2.91 3.48,-5.48 4.72,-7.64 0.19,-0.3 0.35,-0.59 0.51,-0.89 0.84,-1.46 1.51,-2.73 2.05,-3.78 0.19,-0.35 0.38,-0.67 0.51,-1 0.22,-0.41 0.38,-0.76 0.54,-1.08 0.19,-0.4 0.35,-0.76 0.46,-1 0,-0.03 0.03,-0.08 0.05,-0.11 0.05,-0.11 0.08,-0.19 0.11,-0.24 v -0.03 c 0.03,-0.05 0.05,-0.08 0.08,-0.16 -98.1,5.86 -107.01,-75.43 -112.48,-132.29 -1.05,-10.55 -2.97,-20.1 -5.42,-28.63 -10.71,-37.35 -31.58,-55.35 -31.58,-55.35 0,0 80.21,10.5 116.45,76.48 14.9,27.1 28.58,52.22 46.04,69.47 17.97,17.73 39.91,27.2 71.33,22.05 46.22,-7.59 95.82,-46.13 127.34,-30.75 z"
   id="path4" />
		<path
   class="st2"
   d="m 558.87,263.66 -31.55,10.47 -6.5,2.16 c -0.4,0.11 -0.86,0.3 -1.3,0.43 -1.46,0.54 -3.08,1.16 -4.83,1.86 -0.4,0.22 -0.86,0.38 -1.3,0.57 -15.79,6.56 -31.01,22.21 -47.85,44.96 -0.22,0.27 -0.43,0.59 -0.65,0.89 -0.22,0.3 -0.43,0.62 -0.67,0.94 -7.02,9.55 -18.41,26.02 -33.36,44.42 -10.01,11.15 -20.86,21.86 -32.68,31.22 -0.22,0.19 -0.46,0.38 -0.7,0.54 -7.31,5.78 -15,10.98 -23.07,15.49 -0.08,0.05 -0.16,0.08 -0.24,0.13 -20.83,11.55 -46.39,14.98 -69.95,18.3 -0.19,0.03 -0.38,0.05 -0.57,0.08 -0.97,0.14 -1.94,0.27 -2.91,0.38 -0.92,0.13 -1.86,0.24 -2.81,0.35 -2.54,0.3 -5.07,0.57 -7.64,0.78 -1.48,0.13 -2.97,0.24 -4.45,0.32 -1.11,0.11 -2.21,0.19 -3.32,0.22 -0.08,0.03 -0.16,0.03 -0.24,0.03 -0.81,0.03 -1.62,0.08 -2.43,0.11 -1.08,0.05 -2.16,0.11 -3.24,0.13 -0.38,0 -0.73,0.03 -1.11,0.03 -0.86,0.03 -1.73,0.05 -2.59,0.05 -3.86,0.05 -7.69,0.03 -11.52,-0.11 -0.92,-0.03 -1.78,-0.08 -2.73,-0.14 1.05,-0.81 2.11,-1.57 3.13,-2.35 1.03,-0.78 2.05,-1.56 3.08,-2.32 4.05,-3.1 7.93,-6.18 11.63,-9.2 1.83,-1.51 3.64,-3.02 5.4,-4.51 0.89,-0.73 1.75,-1.48 2.62,-2.24 0.81,-0.7 1.65,-1.4 2.46,-2.11 3.37,-2.97 6.56,-5.88 9.61,-8.74 0.76,-0.7 1.48,-1.4 2.21,-2.11 2.21,-2.08 4.32,-4.16 6.32,-6.18 0.67,-0.67 1.35,-1.35 2,-2.02 0.65,-0.67 1.3,-1.32 1.92,-2 0.65,-0.65 1.27,-1.3 1.89,-1.97 1.24,-1.3 2.43,-2.59 3.56,-3.83 0.59,-0.65 1.16,-1.27 1.7,-1.89 8.96,-9.96 15.57,-18.7 20.32,-25.72 0.59,-0.86 1.13,-1.67 1.65,-2.48 1.92,-2.91 3.48,-5.48 4.72,-7.64 0.19,-0.3 0.35,-0.59 0.51,-0.89 0.84,-1.46 1.51,-2.73 2.05,-3.78 0.19,-0.35 0.38,-0.67 0.51,-1 0.22,-0.41 0.38,-0.76 0.54,-1.08 0.19,-0.4 0.35,-0.76 0.46,-1 0,-0.03 0.03,-0.08 0.05,-0.11 0,-0.05 0.03,-0.08 0.03,-0.11 0.03,-0.05 0.05,-0.11 0.08,-0.14 v -0.03 c 0.03,-0.05 0.05,-0.08 0.08,-0.16 -98.1,5.86 -107.01,-75.43 -112.48,-132.29 -1.05,-10.55 -2.97,-20.1 -5.42,-28.63 7.18,4.51 14.36,9.66 21.54,15.52 59.4,48.52 78.86,73.92 109.38,75.08 17.97,17.73 39.91,27.2 71.33,22.05 46.21,-7.57 95.81,-46.11 127.33,-30.73 z"
   id="path5" />
	</g>
	<g
   id="g6">
		
			<linearGradient
   id="SVGID_00000168106783659027370710000014015853706649795218_"
   gradientUnits="userSpaceOnUse"
   x1="299.20331"
   y1="426.4332"
   x2="240.1492"
   y2="367.37921">
			<stop
   offset="0"
   style="stop-color:#15A0FD"
   id="stop5" />
			<stop
   offset="1"
   style="stop-color:#74E9CC"
   id="stop6" />
		</linearGradient>
		<path
   style="fill:url(#SVGID_00000168106783659027370710000014015853706649795218_)"
   d="m 152.05,331.44 c 40.27,-16.74 77.8,14.11 82.36,17.56 0.27,0.19 0.39,0.29 0.39,0.29 25.35,20.96 43.49,17.45 55.83,16.42 0,0 -28.85,19.86 -64.92,4.28 -2.89,-1.25 -5.83,-2.71 -8.83,-4.47 -21.87,-12.77 -50.66,-31 -64.83,-34.08 z"
   id="path6" />
	</g>
</g>
</svg>
