<?xml version="1.0" encoding="UTF-8" standalone="no"?>
<svg
   width="282"
   height="194.69299"
   viewBox="0 0 282 194.69299"
   fill="none"
   version="1.1"
   id="svg8"
   sodipodi:docname="logo_redraven.svg"
   inkscape:version="1.4 (e7c3feb100, 2024-10-09)"
   xmlns:inkscape="http://www.inkscape.org/namespaces/inkscape"
   xmlns:sodipodi="http://sodipodi.sourceforge.net/DTD/sodipodi-0.dtd"
   xmlns="http://www.w3.org/2000/svg"
   xmlns:svg="http://www.w3.org/2000/svg">
  <sodipodi:namedview
     id="namedview8"
     pagecolor="#ffffff"
     bordercolor="#000000"
     borderopacity="0.25"
     inkscape:showpageshadow="2"
     inkscape:pageopacity="0.0"
     inkscape:pagecheckerboard="0"
     inkscape:deskcolor="#d1d1d1"
     inkscape:zoom="0.9784292"
     inkscape:cx="396.55399"
     inkscape:cy="63.877897"
     inkscape:window-width="1920"
     inkscape:window-height="1056"
     inkscape:window-x="1920"
     inkscape:window-y="0"
     inkscape:window-maximized="1"
     inkscape:current-layer="svg8" />
  <path
     d="m 281.98,76.8635 -0.241,0.0802 -17.702,5.8639 -3.638,1.2129 c -0.231,0.0702 -0.481,0.1704 -0.732,0.2506 -0.812,0.3107 -1.724,0.6516 -2.707,1.0525 -0.23,0.1103 -0.481,0.2005 -0.721,0.3107 -8.861,3.6788 -17.392,12.4597 -26.844,25.2197 -3.819,5.153 -10.685,14.695 -20.469,24.93 -5.553,5.813 -12.068,11.848 -19.506,17.451 -0.491,0.371 -1.002,0.742 -1.504,1.113 -0.471,0.35 -0.962,0.691 -1.443,1.042 -0.672,0.471 -1.363,0.942 -2.045,1.413 -0.722,0.492 -1.453,0.983 -2.185,1.464 -0.251,0.17 -0.501,0.331 -0.752,0.501 -1.523,0.982 -3.097,1.955 -4.701,2.887 -15.567,9.092 -40.195,14.134 -61.897,13.342 -0.511,-0.02 -1.022,-0.04 -1.544,-0.081 -17.2407,-0.882 -36.336,-6.264 -57.2557,-18.233 0,0 57.4867,4.04 90.4947,-18.233 6.696,-4.521 12.38,-10.124 16.379,-17.061 0.01,-0.02 0.03,-0.04 0.04,-0.08 -0.18,0.05 -2.907,0.982 -7.397,1.674 -13.432,2.015 -42.571,1.754 -65.8868,-30.9936 C 43.4232,26.8848 21.9922,24.6294 0,23.2662 c 0,0 46.9916,-23.756488 96.8802,7.7484 4.0198,2.526 8.0488,5.4229 12.0788,8.7107 33.319,27.2146 44.235,41.4585 61.356,42.1 6.475,0.2406 12.95,-1.4434 19.175,-3.5484 5.674,-1.9146 11.066,-4.1198 16.399,-7.1169 7.588,-4.2501 15.838,-7.9489 24.348,-8.3499 4.21,-0.2005 8.4,0.4812 12.259,2.1952 2.035,0.9022 3.839,2.1251 5.664,3.4081 0.451,0.3208 2.255,1.9446 2.696,1.7943 C 274.572,61.7476 282,76.8635 282,76.8635 Z"
     fill="url(#paint0_linear_29002_108)"
     id="path3"
     style="fill:url(#paint0_linear_29002_108)" />
  <path
     d="m 281.734,76.9428 -17.692,5.874 -3.648,1.2128 c -0.231,0.0602 -0.481,0.1705 -0.722,0.2406 -0.822,0.3007 -1.724,0.6516 -2.706,1.0425 -0.231,0.1203 -0.481,0.2105 -0.722,0.3208 -8.851,3.6787 -17.391,12.4596 -26.834,25.2195 -0.12,0.151 -0.24,0.331 -0.361,0.502 -0.12,0.17 -0.24,0.35 -0.381,0.531 -3.939,5.363 -10.324,14.594 -18.704,24.919 -5.613,6.255 -11.698,12.259 -18.334,17.512 -0.12,0.11 -0.26,0.21 -0.391,0.3 -4.129,3.118 -8.46,6.015 -12.94,8.691 -0.04,0.03 -0.09,0.04 -0.141,0.08 -41.598,24.809 -94.4941,31.094 -95.4764,31.305 11.808,-6.676 21.9624,-13.332 30.6824,-19.787 h 0.021 c 0.591,-0.452 1.182,-0.883 1.754,-1.314 0.571,-0.441 1.152,-0.882 1.724,-1.303 2.275,-1.744 4.45,-3.468 6.525,-5.162 1.043,-0.852 2.045,-1.684 3.027,-2.526 0.502,-0.411 0.983,-0.832 1.464,-1.253 0.451,-0.391 0.922,-0.792 1.373,-1.183 1.895,-1.664 3.679,-3.298 5.393,-4.901 0.421,-0.391 0.832,-0.792 1.243,-1.183 1.243,-1.163 2.426,-2.336 3.538,-3.468 0.381,-0.381 0.762,-0.762 1.123,-1.133 0.381,-0.381 0.742,-0.762 1.073,-1.123 0.36,-0.361 0.711,-0.721 1.062,-1.102 0.692,-0.722 1.363,-1.454 1.995,-2.145 0.331,-0.361 0.651,-0.712 0.952,-1.063 5.022,-5.583 8.731,-10.485 11.397,-14.424 0.331,-0.481 0.632,-0.943 0.922,-1.394 1.073,-1.633 1.955,-3.077 2.647,-4.28 0.11,-0.17 0.2,-0.331 0.29,-0.501 0.472,-0.822 0.852,-1.534 1.153,-2.115 0.11,-0.2 0.211,-0.381 0.291,-0.561 0.12,-0.231 0.21,-0.421 0.301,-0.602 0.11,-0.23 0.2,-0.421 0.26,-0.561 0,-0.02 0.02,-0.05 0.03,-0.06 0.03,-0.06 0.05,-0.11 0.06,-0.141 v -0.02 c 0,0 0.03,-0.04 0.05,-0.09 C 108.012,124.586 103.02,78.9877 99.9426,47.1019 99.3512,41.1879 98.2786,35.8251 96.9054,31.0438 90.8911,10.094 79.1933,0 79.1933,0 c 0,0 44.9867,5.88398 65.3147,42.9019 8.36,15.1961 16.029,29.2896 25.822,38.9626 10.084,9.9436 22.383,15.2563 40.005,12.3694 25.931,-4.2702 53.748,-25.8815 71.43,-17.251 z"
     fill="url(#paint1_linear_29002_108)"
     id="path4"
     style="fill:url(#paint1_linear_29002_108)" />
  <path
     d="m 281.74,76.9432 -17.692,5.8739 -3.649,1.2129 c -0.23,0.0602 -0.481,0.1704 -0.722,0.2406 -0.822,0.3007 -1.724,0.6515 -2.706,1.0425 -0.231,0.1203 -0.481,0.2105 -0.722,0.3207 -8.851,3.6788 -17.391,12.4596 -26.833,25.2202 -0.121,0.15 -0.241,0.331 -0.361,0.501 -0.121,0.17 -0.241,0.351 -0.381,0.531 -3.94,5.363 -10.325,14.595 -18.705,24.919 -5.613,6.255 -11.697,12.26 -18.333,17.512 -0.121,0.11 -0.261,0.211 -0.391,0.301 -4.1,3.237 -8.42,6.164 -12.941,8.69 -0.04,0.03 -0.09,0.04 -0.14,0.081 -11.688,6.475 -26.022,8.4 -39.233,10.264 l -0.321,0.05 c -0.542,0.08 -1.093,0.15 -1.634,0.211 -0.511,0.08 -1.043,0.14 -1.574,0.2 -1.423,0.17 -2.847,0.321 -4.28,0.441 -0.832,0.08 -1.664,0.14 -2.496,0.181 -0.621,0.06 -1.243,0.11 -1.864,0.12 -0.05,0.02 -0.091,0.02 -0.141,0.02 -0.451,0.02 -0.912,0.05 -1.363,0.06 -0.601,0.03 -1.213,0.06 -1.814,0.08 -0.211,0 -0.411,0.02 -0.622,0.02 -0.481,0.01 -0.972,0.03 -1.453,0.03 -2.165,0.03 -4.31,0.01 -6.466,-0.06 -0.511,-0.02 -1.002,-0.05 -1.533,-0.08 0.591,-0.451 1.183,-0.882 1.754,-1.313 0.571,-0.441 1.153,-0.882 1.724,-1.303 2.275,-1.744 4.451,-3.468 6.526,-5.163 1.032,-0.852 2.044,-1.694 3.027,-2.526 0.501,-0.41 0.982,-0.831 1.463,-1.252 0.451,-0.391 0.922,-0.792 1.373,-1.183 1.895,-1.664 3.679,-3.298 5.393,-4.902 0.421,-0.391 0.832,-0.792 1.243,-1.183 1.243,-1.163 2.426,-2.335 3.539,-3.468 0.381,-0.381 0.761,-0.762 1.122,-1.133 0.361,-0.371 0.722,-0.741 1.073,-1.122 0.361,-0.361 0.712,-0.722 1.062,-1.103 0.692,-0.722 1.364,-1.453 1.995,-2.145 0.331,-0.361 0.652,-0.712 0.952,-1.063 5.022,-5.583 8.731,-10.485 11.398,-14.424 0.33,-0.481 0.631,-0.942 0.922,-1.393 1.072,-1.634 1.954,-3.077 2.646,-4.28 0.11,-0.171 0.2,-0.331 0.291,-0.502 0.471,-0.821 0.852,-1.533 1.152,-2.115 0.111,-0.2 0.211,-0.38 0.291,-0.561 0.12,-0.23 0.211,-0.421 0.301,-0.601 0.11,-0.231 0.2,-0.421 0.26,-0.562 0,-0.02 0.02,-0.05 0.03,-0.06 0,-0.03 0.021,-0.05 0.021,-0.06 0.02,-0.03 0.03,-0.06 0.05,-0.08 v -0.02 c 0,0 0.03,-0.04 0.05,-0.09 -55.021,3.287 -60.013,-42.3109 -63.0901,-74.1967 -0.5914,-5.914 -1.664,-11.2768 -3.0372,-16.0581 4.0293,2.526 8.0493,5.4229 12.0783,8.7007 33.32,27.2146 44.225,41.4585 61.346,42.11 10.084,9.9436 22.383,15.2562 40.005,12.3694 25.932,-4.2702 53.748,-25.8815 71.43,-17.251 z"
     fill="#ce1515"
     id="path5" />
  <defs
     id="defs8">
    <linearGradient
       id="paint0_linear_29002_108"
       x1="257.14099"
       y1="132.215"
       x2="68.447601"
       y2="92.451401"
       gradientUnits="userSpaceOnUse">
      <stop
         stop-color="#FD1515"
         id="stop5" />
      <stop
         offset="1"
         stop-color="#FADA0C"
         id="stop6" />
    </linearGradient>
    <linearGradient
       id="paint1_linear_29002_108"
       x1="269.09399"
       y1="136.925"
       x2="59.6068"
       y2="92.770401"
       gradientUnits="userSpaceOnUse">
      <stop
         stop-color="#FADA0C"
         id="stop7" />
      <stop
         offset="1"
         stop-color="#FD1515"
         id="stop8" />
    </linearGradient>
  </defs>
</svg>
